<?xml version="1.0" encoding="utf-8" ?><svg xmlns="http://www.w3.org/2000/svg" xmlns:xlink="http://www.w3.org/1999/xlink" width="24" height="24"><path fill="#000" transform="matrix(1 0 0 1 3.00098 3)" d="M5.5 8L5.5 13L12.5 13L12.5 8L18 8L18 18L0 18L0 8L5.5 8ZM12.5 0L12.5 5L5.5 5L5.5 0L12.5 0Z"/><defs><linearGradient id="gradient_0" gradientTransform="matrix(1.10218e-15 18 -18 1.10218e-15 9.00001 -5.51091e-16)" gradientUnits="userSpaceOnUse" x1="0" y1="0" x2="1" y2="0"><stop offset="0" stop-color="#000"/><stop offset="1" stop-color="#666"/></linearGradient></defs><path fill="url(#gradient_0)" transform="matrix(1 0 0 1 3.00098 3)" d="M5.5 8L5.5 13L12.5 13L12.5 8L18 8L18 18L0 18L0 8L5.5 8ZM12.5 0L12.5 5L5.5 5L5.5 0L12.5 0Z"/></svg>