<?xml version="1.0" encoding="utf-8" ?><svg xmlns="http://www.w3.org/2000/svg" xmlns:xlink="http://www.w3.org/1999/xlink" width="24" height="24"><path fill="#000" transform="matrix(1 0 0 1 1.09082 1.09094)" d="M10.0336 0L11.7845 0L11.8361 0.8544C12.1319 5.7598 16.0585 9.6864 20.9638 9.9823L21.8182 10.0338L21.8182 11.7848L20.9638 11.8363C16.0585 12.1322 12.1319 16.0589 11.8361 20.9642L11.7845 21.8186L10.0336 21.8186L9.982 20.9642C9.6862 16.0589 5.7595 12.1322 0.8544 11.8363L0 11.7848L0 10.0338L0.8544 9.9823C5.7595 9.6864 9.6862 5.7598 9.982 0.8544L10.0336 0ZM10.9091 4.7593C9.7392 7.5245 7.5243 9.7395 4.7592 10.9093C7.5243 12.0792 9.7392 14.2941 10.9091 17.0593C12.0789 14.2941 14.2938 12.0792 17.059 10.9093C14.2938 9.7395 12.0789 7.5245 10.9091 4.7593Z"/></svg>