<?xml version="1.0" encoding="utf-8" ?><svg xmlns="http://www.w3.org/2000/svg" xmlns:xlink="http://www.w3.org/1999/xlink" width="24" height="24"><path fill="#000" transform="matrix(1 0 0 1 2.08691 3)" d="M11.3275 2L17.9133 2C18.4656 2 18.9133 2.4477 18.9133 3L18.9133 4L0.9133 4L0.9133 1C0.9133 0.4477 1.361 0 1.9133 0L9.3275 0L11.3275 2ZM1.0001 6L18.8265 6C19.3788 6 19.8265 6.4477 19.8265 7C19.8265 7.0277 19.8253 7.0554 19.823 7.083L18.9897 17.083C18.9465 17.6013 18.5132 18 17.9931 18L1.8334 18C1.3133 18 0.88 17.6013 0.8369 17.083L0.0035 7.083C-0.0424 6.5327 0.3666 6.0493 0.917 6.0034C0.9446 6.0012 0.9723 6 1.0001 6Z"/><defs><linearGradient id="gradient_0" gradientTransform="matrix(1.21402e-15 18 -19.8265 1.10218e-15 9.91325 -5.51091e-16)" gradientUnits="userSpaceOnUse" x1="0" y1="0" x2="1" y2="0"><stop offset="0" stop-color="#000"/><stop offset="1" stop-color="#666"/></linearGradient></defs><path fill="url(#gradient_0)" transform="matrix(1 0 0 1 2.08691 3)" d="M11.3275 2L17.9133 2C18.4656 2 18.9133 2.4477 18.9133 3L18.9133 4L0.9133 4L0.9133 1C0.9133 0.4477 1.361 0 1.9133 0L9.3275 0L11.3275 2ZM1.0001 6L18.8265 6C19.3788 6 19.8265 6.4477 19.8265 7C19.8265 7.0277 19.8253 7.0554 19.823 7.083L18.9897 17.083C18.9465 17.6013 18.5132 18 17.9931 18L1.8334 18C1.3133 18 0.88 17.6013 0.8369 17.083L0.0035 7.083C-0.0424 6.5327 0.3666 6.0493 0.917 6.0034C0.9446 6.0012 0.9723 6 1.0001 6Z"/></svg>