<?xml version="1.0" encoding="utf-8" ?><svg xmlns="http://www.w3.org/2000/svg" xmlns:xlink="http://www.w3.org/1999/xlink" width="24" height="24"><path fill="#000" fill-opacity="0.8" transform="matrix(1 0 0 1 2.08691 3)" d="M1.0001 6L18.8265 6C19.3788 6 19.8265 6.4477 19.8265 7C19.8265 7.0277 19.8253 7.0554 19.823 7.083L18.9897 17.083C18.9465 17.6013 18.5132 18 17.9931 18L1.8334 18C1.3133 18 0.88 17.6013 0.8369 17.083L0.0035 7.083C-0.0424 6.5327 0.3666 6.0493 0.917 6.0034C0.9446 6.0012 0.9723 6 1.0001 6ZM2.7535 16L17.073 16L17.7397 8L2.0869 8L2.7535 16ZM11.3275 2L17.9133 2C18.4656 2 18.9133 2.4477 18.9133 3L18.9133 4L0.9133 4L0.9133 1C0.9133 0.4477 1.361 0 1.9133 0L9.3275 0L11.3275 2Z"/></svg>